<mxfile host="app.diagrams.net" modified="2023-04-03T20:39:33.732Z" agent="Mozilla/5.0 (Windows NT 10.0; Win64; x64) AppleWebKit/537.36 (KHTML, like Gecko) Chrome/111.0.0.0 Safari/537.36" etag="miP2sVpeD4DghcqQP3Vp" version="21.1.4" type="device">
  <diagram name="Page-1" id="efa7a0a1-bf9b-a30e-e6df-94a7791c09e9">
    <mxGraphModel dx="1114" dy="584" grid="1" gridSize="10" guides="1" tooltips="1" connect="1" arrows="1" fold="1" page="1" pageScale="1" pageWidth="826" pageHeight="1169" background="none" math="0" shadow="0">
      <root>
        <mxCell id="0" />
        <mxCell id="1" parent="0" />
        <mxCell id="qlgfu1IO0pB1V-TcOqwh-170" style="edgeStyle=orthogonalEdgeStyle;rounded=0;orthogonalLoop=1;jettySize=auto;html=1;exitX=0.5;exitY=0.5;exitDx=0;exitDy=0;exitPerimeter=0;entryX=0.004;entryY=0.422;entryDx=0;entryDy=0;entryPerimeter=0;" edge="1" parent="1" source="qlgfu1IO0pB1V-TcOqwh-116" target="qlgfu1IO0pB1V-TcOqwh-117">
          <mxGeometry relative="1" as="geometry" />
        </mxCell>
        <mxCell id="qlgfu1IO0pB1V-TcOqwh-116" value="User" style="shape=umlActor;verticalLabelPosition=bottom;verticalAlign=top;html=1;outlineConnect=0;" vertex="1" parent="1">
          <mxGeometry x="10" y="255.06" width="30" height="60" as="geometry" />
        </mxCell>
        <mxCell id="qlgfu1IO0pB1V-TcOqwh-120" value="" style="group" vertex="1" connectable="0" parent="1">
          <mxGeometry x="80" y="80" width="230" height="505" as="geometry" />
        </mxCell>
        <mxCell id="qlgfu1IO0pB1V-TcOqwh-121" value="vite" style="group" vertex="1" connectable="0" parent="qlgfu1IO0pB1V-TcOqwh-120">
          <mxGeometry width="230" height="505" as="geometry" />
        </mxCell>
        <mxCell id="qlgfu1IO0pB1V-TcOqwh-117" value="" style="rounded=0;whiteSpace=wrap;html=1;" vertex="1" parent="qlgfu1IO0pB1V-TcOqwh-121">
          <mxGeometry width="230" height="505" as="geometry" />
        </mxCell>
        <mxCell id="qlgfu1IO0pB1V-TcOqwh-118" value="Browser" style="rounded=0;whiteSpace=wrap;html=1;" vertex="1" parent="qlgfu1IO0pB1V-TcOqwh-121">
          <mxGeometry width="230" height="48.095238095238095" as="geometry" />
        </mxCell>
        <mxCell id="qlgfu1IO0pB1V-TcOqwh-119" value="" style="rounded=0;whiteSpace=wrap;html=1;" vertex="1" parent="qlgfu1IO0pB1V-TcOqwh-121">
          <mxGeometry x="20" y="48.095238095238095" width="190" height="456.9047619047619" as="geometry" />
        </mxCell>
        <mxCell id="qlgfu1IO0pB1V-TcOqwh-122" value="React" style="rounded=0;whiteSpace=wrap;html=1;" vertex="1" parent="qlgfu1IO0pB1V-TcOqwh-121">
          <mxGeometry x="20" y="48.095238095238095" width="190" height="72.14285714285714" as="geometry" />
        </mxCell>
        <mxCell id="qlgfu1IO0pB1V-TcOqwh-123" value="React Router" style="rounded=0;whiteSpace=wrap;html=1;" vertex="1" parent="qlgfu1IO0pB1V-TcOqwh-121">
          <mxGeometry x="30" y="127.45581632653061" width="170" height="44.65642857142856" as="geometry" />
        </mxCell>
        <mxCell id="qlgfu1IO0pB1V-TcOqwh-124" value="Vite test" style="rounded=0;whiteSpace=wrap;html=1;" vertex="1" parent="qlgfu1IO0pB1V-TcOqwh-121">
          <mxGeometry x="30" y="446.5986394557823" width="170" height="48.095238095238095" as="geometry" />
        </mxCell>
        <mxCell id="qlgfu1IO0pB1V-TcOqwh-125" value="Tailwind" style="rounded=0;whiteSpace=wrap;html=1;" vertex="1" parent="qlgfu1IO0pB1V-TcOqwh-121">
          <mxGeometry x="30" y="182.41836734693877" width="170" height="44.65642857142856" as="geometry" />
        </mxCell>
        <mxCell id="qlgfu1IO0pB1V-TcOqwh-126" value="SWR" style="rounded=0;whiteSpace=wrap;html=1;" vertex="1" parent="qlgfu1IO0pB1V-TcOqwh-121">
          <mxGeometry x="30" y="242.5442857142857" width="170" height="34.35030612244898" as="geometry" />
        </mxCell>
        <mxCell id="qlgfu1IO0pB1V-TcOqwh-143" value="" style="group" vertex="1" connectable="0" parent="qlgfu1IO0pB1V-TcOqwh-121">
          <mxGeometry x="30" y="303" width="170" height="123.67346938775509" as="geometry" />
        </mxCell>
        <mxCell id="qlgfu1IO0pB1V-TcOqwh-138" value="" style="rounded=0;whiteSpace=wrap;html=1;" vertex="1" parent="qlgfu1IO0pB1V-TcOqwh-143">
          <mxGeometry width="170" height="123.67346938775509" as="geometry" />
        </mxCell>
        <mxCell id="qlgfu1IO0pB1V-TcOqwh-139" value="Container" style="rounded=0;whiteSpace=wrap;html=1;" vertex="1" parent="qlgfu1IO0pB1V-TcOqwh-143">
          <mxGeometry width="170" height="41.224489795918366" as="geometry" />
        </mxCell>
        <mxCell id="qlgfu1IO0pB1V-TcOqwh-140" value="Components" style="rounded=0;whiteSpace=wrap;html=1;" vertex="1" parent="qlgfu1IO0pB1V-TcOqwh-143">
          <mxGeometry x="10" y="58.404795918367356" width="150" height="41.224489795918366" as="geometry" />
        </mxCell>
        <mxCell id="qlgfu1IO0pB1V-TcOqwh-160" value="Jest" style="rounded=0;whiteSpace=wrap;html=1;container=0;" vertex="1" parent="1">
          <mxGeometry x="380" y="535" width="260" height="50" as="geometry" />
        </mxCell>
        <mxCell id="qlgfu1IO0pB1V-TcOqwh-144" value="" style="rounded=0;whiteSpace=wrap;html=1;container=0;" vertex="1" parent="1">
          <mxGeometry x="380" y="95" width="260" height="445" as="geometry" />
        </mxCell>
        <mxCell id="qlgfu1IO0pB1V-TcOqwh-148" value="Nest.js" style="rounded=0;whiteSpace=wrap;html=1;container=0;" vertex="1" parent="1">
          <mxGeometry x="380" y="80" width="260" height="63.62" as="geometry" />
        </mxCell>
        <mxCell id="qlgfu1IO0pB1V-TcOqwh-165" value="" style="group" vertex="1" connectable="0" parent="1">
          <mxGeometry x="370" y="135.62" width="275.37" height="360.01" as="geometry" />
        </mxCell>
        <mxCell id="qlgfu1IO0pB1V-TcOqwh-149" value="Controller" style="rounded=0;whiteSpace=wrap;html=1;verticalAlign=middle;direction=west;rotation=90;container=0;" vertex="1" parent="qlgfu1IO0pB1V-TcOqwh-165">
          <mxGeometry x="-41.56" y="147.63" width="246.3" height="64.73" as="geometry" />
        </mxCell>
        <mxCell id="qlgfu1IO0pB1V-TcOqwh-162" value="Servces" style="rounded=0;whiteSpace=wrap;html=1;verticalAlign=middle;direction=west;rotation=90;container=0;" vertex="1" parent="qlgfu1IO0pB1V-TcOqwh-165">
          <mxGeometry x="29.070000000000007" y="148.94" width="246.3" height="62.16" as="geometry" />
        </mxCell>
        <mxCell id="qlgfu1IO0pB1V-TcOqwh-163" value="Repository" style="rounded=0;whiteSpace=wrap;html=1;verticalAlign=middle;direction=west;rotation=90;container=0;" vertex="1" parent="qlgfu1IO0pB1V-TcOqwh-165">
          <mxGeometry x="100" y="148.94000000000003" width="246.3" height="65.56" as="geometry" />
        </mxCell>
        <mxCell id="qlgfu1IO0pB1V-TcOqwh-161" value="JWT" style="rounded=0;whiteSpace=wrap;html=1;verticalAlign=middle;direction=west;rotation=90;container=0;" vertex="1" parent="qlgfu1IO0pB1V-TcOqwh-165">
          <mxGeometry x="-60" y="169.49999999999997" width="196.59" height="20.99" as="geometry" />
        </mxCell>
        <mxCell id="qlgfu1IO0pB1V-TcOqwh-166" value="" style="endArrow=classic;startArrow=classic;html=1;rounded=0;entryX=0;entryY=0.5;entryDx=0;entryDy=0;entryPerimeter=0;exitX=1;exitY=0.5;exitDx=0;exitDy=0;" edge="1" parent="1">
          <mxGeometry width="50" height="50" relative="1" as="geometry">
            <mxPoint x="310" y="305.59999999999997" as="sourcePoint" />
            <mxPoint x="370" y="305.54" as="targetPoint" />
          </mxGeometry>
        </mxCell>
        <mxCell id="qlgfu1IO0pB1V-TcOqwh-179" style="edgeStyle=orthogonalEdgeStyle;rounded=0;orthogonalLoop=1;jettySize=auto;html=1;exitX=1;exitY=0.75;exitDx=0;exitDy=0;entryX=0.5;entryY=1;entryDx=0;entryDy=0;" edge="1" parent="1" source="qlgfu1IO0pB1V-TcOqwh-174" target="qlgfu1IO0pB1V-TcOqwh-171">
          <mxGeometry relative="1" as="geometry" />
        </mxCell>
        <mxCell id="qlgfu1IO0pB1V-TcOqwh-171" value="Cloud" style="rounded=0;whiteSpace=wrap;html=1;" vertex="1" parent="1">
          <mxGeometry x="380" y="585" width="460" height="105" as="geometry" />
        </mxCell>
        <mxCell id="qlgfu1IO0pB1V-TcOqwh-178" style="edgeStyle=orthogonalEdgeStyle;rounded=0;orthogonalLoop=1;jettySize=auto;html=1;exitX=0.5;exitY=1;exitDx=0;exitDy=0;entryX=0.5;entryY=0;entryDx=0;entryDy=0;" edge="1" parent="1" source="qlgfu1IO0pB1V-TcOqwh-172" target="qlgfu1IO0pB1V-TcOqwh-174">
          <mxGeometry relative="1" as="geometry" />
        </mxCell>
        <mxCell id="qlgfu1IO0pB1V-TcOqwh-172" value="GIT Hiub" style="rounded=0;whiteSpace=wrap;html=1;" vertex="1" parent="1">
          <mxGeometry x="360" y="730" width="200" height="40" as="geometry" />
        </mxCell>
        <mxCell id="qlgfu1IO0pB1V-TcOqwh-177" style="edgeStyle=orthogonalEdgeStyle;rounded=0;orthogonalLoop=1;jettySize=auto;html=1;exitX=1;exitY=0.5;exitDx=0;exitDy=0;" edge="1" parent="1" source="qlgfu1IO0pB1V-TcOqwh-173">
          <mxGeometry relative="1" as="geometry">
            <mxPoint x="350" y="750" as="targetPoint" />
          </mxGeometry>
        </mxCell>
        <mxCell id="qlgfu1IO0pB1V-TcOqwh-173" value="VSCode" style="rounded=0;whiteSpace=wrap;html=1;" vertex="1" parent="1">
          <mxGeometry x="100" y="730" width="200" height="40" as="geometry" />
        </mxCell>
        <mxCell id="qlgfu1IO0pB1V-TcOqwh-174" value="Actions (Build Test Publish)" style="rounded=0;whiteSpace=wrap;html=1;" vertex="1" parent="1">
          <mxGeometry x="360" y="790" width="200" height="40" as="geometry" />
        </mxCell>
        <mxCell id="qlgfu1IO0pB1V-TcOqwh-176" style="edgeStyle=orthogonalEdgeStyle;rounded=0;orthogonalLoop=1;jettySize=auto;html=1;exitX=0.5;exitY=0.5;exitDx=0;exitDy=0;exitPerimeter=0;entryX=0;entryY=0.5;entryDx=0;entryDy=0;" edge="1" parent="1" source="qlgfu1IO0pB1V-TcOqwh-175" target="qlgfu1IO0pB1V-TcOqwh-173">
          <mxGeometry relative="1" as="geometry" />
        </mxCell>
        <mxCell id="qlgfu1IO0pB1V-TcOqwh-175" value="Dev" style="shape=umlActor;verticalLabelPosition=bottom;verticalAlign=top;html=1;outlineConnect=0;" vertex="1" parent="1">
          <mxGeometry x="20" y="720" width="30" height="60" as="geometry" />
        </mxCell>
        <mxCell id="qlgfu1IO0pB1V-TcOqwh-184" value="" style="endArrow=classic;startArrow=classic;html=1;rounded=0;exitX=0.5;exitY=1;exitDx=0;exitDy=0;entryX=0;entryY=0.5;entryDx=0;entryDy=0;" edge="1" parent="1" source="qlgfu1IO0pB1V-TcOqwh-117" target="qlgfu1IO0pB1V-TcOqwh-171">
          <mxGeometry width="50" height="50" relative="1" as="geometry">
            <mxPoint x="330" y="680" as="sourcePoint" />
            <mxPoint x="380" y="630" as="targetPoint" />
            <Array as="points">
              <mxPoint x="195" y="640" />
            </Array>
          </mxGeometry>
        </mxCell>
        <mxCell id="qlgfu1IO0pB1V-TcOqwh-187" value="" style="rounded=0;whiteSpace=wrap;html=1;" vertex="1" parent="1">
          <mxGeometry x="640" y="80" width="200" height="505" as="geometry" />
        </mxCell>
        <mxCell id="qlgfu1IO0pB1V-TcOqwh-188" value="SQL Lite" style="shape=cylinder3;whiteSpace=wrap;html=1;boundedLbl=1;backgroundOutline=1;size=15;" vertex="1" parent="1">
          <mxGeometry x="690" y="203" width="100" height="260" as="geometry" />
        </mxCell>
        <mxCell id="qlgfu1IO0pB1V-TcOqwh-189" value="" style="endArrow=classic;startArrow=classic;html=1;rounded=0;entryX=0;entryY=0.5;entryDx=0;entryDy=0;entryPerimeter=0;exitX=0;exitY=0.5;exitDx=0;exitDy=0;" edge="1" parent="1" source="qlgfu1IO0pB1V-TcOqwh-187" target="qlgfu1IO0pB1V-TcOqwh-188">
          <mxGeometry width="50" height="50" relative="1" as="geometry">
            <mxPoint x="520" y="350" as="sourcePoint" />
            <mxPoint x="570" y="300" as="targetPoint" />
          </mxGeometry>
        </mxCell>
      </root>
    </mxGraphModel>
  </diagram>
</mxfile>
